<?xml version="1.0" encoding="UTF-8" standalone="no"?>
<!-- Created with Inkscape (http://www.inkscape.org/) -->

<svg
   width="119.04425mm"
   height="119.04425mm"
   viewBox="0 0 119.04425 119.04425"
   version="1.1"
   id="svg5"
   inkscape:version="1.1.2 (b8e25be833, 2022-02-05)"
   sodipodi:docname="Bing Chat.svg"
   xmlns:inkscape="http://www.inkscape.org/namespaces/inkscape"
   xmlns:sodipodi="http://sodipodi.sourceforge.net/DTD/sodipodi-0.dtd"
   xmlns="http://www.w3.org/2000/svg"
   xmlns:svg="http://www.w3.org/2000/svg">
  <sodipodi:namedview
     id="namedview7"
     pagecolor="#ffffff"
     bordercolor="#666666"
     borderopacity="1.0"
     inkscape:pageshadow="2"
     inkscape:pageopacity="0.0"
     inkscape:pagecheckerboard="0"
     inkscape:document-units="mm"
     showgrid="false"
     inkscape:zoom="0.64052329"
     inkscape:cx="256.82126"
     inkscape:cy="464.46399"
     inkscape:window-width="1284"
     inkscape:window-height="1012"
     inkscape:window-x="185"
     inkscape:window-y="97"
     inkscape:window-maximized="0"
     inkscape:current-layer="layer1" />
  <defs
     id="defs2">
    <linearGradient
       id="b"
       x1="22"
       x2="22"
       y1="2"
       y2="38"
       gradientUnits="userSpaceOnUse">
      <stop
         stop-color="#F9F9F9"
         id="stop848" />
      <stop
         offset="1"
         stop-color="#EDF0F9"
         id="stop850" />
    </linearGradient>
    <linearGradient
       id="c"
       x1="4.1370001"
       x2="44.563999"
       y1="44.75"
       y2="38.792"
       gradientUnits="userSpaceOnUse">
      <stop
         offset=".108"
         stop-color="#1D6CF2"
         id="stop853" />
      <stop
         offset=".871"
         stop-color="#1B4AEF"
         id="stop855" />
    </linearGradient>
    <linearGradient
       id="i"
       x1="21.172001"
       x2="30.459999"
       y1="18.646"
       y2="23.99"
       gradientUnits="userSpaceOnUse">
      <stop
         stop-color="#37BDFF"
         id="stop858" />
      <stop
         offset=".183"
         stop-color="#33BFFD"
         id="stop860" />
      <stop
         offset=".358"
         stop-color="#28C5F5"
         id="stop862" />
      <stop
         offset=".528"
         stop-color="#15D0E9"
         id="stop864" />
      <stop
         offset=".547"
         stop-color="#12D1E7"
         id="stop866" />
      <stop
         offset=".59"
         stop-color="#1CD2E5"
         id="stop868" />
      <stop
         offset=".768"
         stop-color="#42D8DC"
         id="stop870" />
      <stop
         offset=".911"
         stop-color="#59DBD6"
         id="stop872" />
      <stop
         offset="1"
         stop-color="#62DCD4"
         id="stop874" />
    </linearGradient>
    <linearGradient
       id="j"
       x1="15.739"
       x2="29.233"
       y1="26.702999"
       y2="26.702999"
       gradientUnits="userSpaceOnUse">
      <stop
         stop-color="#39D2FF"
         id="stop877" />
      <stop
         offset=".15"
         stop-color="#38CEFE"
         id="stop879" />
      <stop
         offset=".293"
         stop-color="#35C3FA"
         id="stop881" />
      <stop
         offset=".433"
         stop-color="#2FB0F3"
         id="stop883" />
      <stop
         offset=".547"
         stop-color="#299AEB"
         id="stop885" />
      <stop
         offset=".583"
         stop-color="#2692EC"
         id="stop887" />
      <stop
         offset=".763"
         stop-color="#1A6CF1"
         id="stop889" />
      <stop
         offset=".909"
         stop-color="#1355F4"
         id="stop891" />
      <stop
         offset="1"
         stop-color="#104CF5"
         id="stop893" />
    </linearGradient>
    <linearGradient
       id="k"
       x1="18.23"
       x2="18.23"
       y1="27.893999"
       y2="9.79"
       gradientUnits="userSpaceOnUse">
      <stop
         stop-color="#1B48EF"
         id="stop896" />
      <stop
         offset=".122"
         stop-color="#1C51F0"
         id="stop898" />
      <stop
         offset=".321"
         stop-color="#1E69F5"
         id="stop900" />
      <stop
         offset=".568"
         stop-color="#2190FB"
         id="stop902" />
      <stop
         offset="1"
         stop-color="#26B8F4"
         id="stop904" />
    </linearGradient>
    <linearGradient
       id="l"
       x1="18.421"
       x2="26.775999"
       y1="30.045"
       y2="21.718"
       gradientUnits="userSpaceOnUse">
      <stop
         stop-color="#fff"
         id="stop907" />
      <stop
         offset=".373"
         stop-color="#FDFDFD"
         id="stop909" />
      <stop
         offset=".507"
         stop-color="#F6F6F6"
         id="stop911" />
      <stop
         offset=".603"
         stop-color="#EBEBEB"
         id="stop913" />
      <stop
         offset=".68"
         stop-color="#DADADA"
         id="stop915" />
      <stop
         offset=".746"
         stop-color="#C4C4C4"
         id="stop917" />
      <stop
         offset=".805"
         stop-color="#A8A8A8"
         id="stop919" />
      <stop
         offset=".858"
         stop-color="#888"
         id="stop921" />
      <stop
         offset=".907"
         stop-color="#626262"
         id="stop923" />
      <stop
         offset=".952"
         stop-color="#373737"
         id="stop925" />
      <stop
         offset=".993"
         stop-color="#090909"
         id="stop927" />
      <stop
         offset="1"
         id="stop929" />
    </linearGradient>
    <linearGradient
       id="m"
       x1="18.23"
       x2="18.23"
       y1="9.4689999"
       y2="27.707001"
       gradientUnits="userSpaceOnUse">
      <stop
         stop-color="#fff"
         id="stop932" />
      <stop
         offset=".373"
         stop-color="#FDFDFD"
         id="stop934" />
      <stop
         offset=".507"
         stop-color="#F6F6F6"
         id="stop936" />
      <stop
         offset=".603"
         stop-color="#EBEBEB"
         id="stop938" />
      <stop
         offset=".68"
         stop-color="#DADADA"
         id="stop940" />
      <stop
         offset=".746"
         stop-color="#C4C4C4"
         id="stop942" />
      <stop
         offset=".805"
         stop-color="#A8A8A8"
         id="stop944" />
      <stop
         offset=".858"
         stop-color="#888"
         id="stop946" />
      <stop
         offset=".907"
         stop-color="#626262"
         id="stop948" />
      <stop
         offset=".952"
         stop-color="#373737"
         id="stop950" />
      <stop
         offset=".993"
         stop-color="#090909"
         id="stop952" />
      <stop
         offset="1"
         id="stop954" />
    </linearGradient>
    <radialGradient
       id="d"
       cx="0"
       cy="0"
       r="1"
       gradientTransform="matrix(30.857161,7.714151,-7.714151,30.857161,13.321223,34.142405)"
       gradientUnits="userSpaceOnUse">
      <stop
         stop-color="#0B31A3"
         id="stop957" />
      <stop
         offset="1"
         stop-color="#39A0ED"
         id="stop959" />
    </radialGradient>
    <radialGradient
       id="e"
       cx="0"
       cy="0"
       r="1"
       gradientTransform="matrix(-15.749951,-12.857252,12.857252,-15.749951,16.213659,14.85757)"
       gradientUnits="userSpaceOnUse">
      <stop
         stop-color="#00FFF3"
         stop-opacity=".77"
         id="stop962" />
      <stop
         offset=".423"
         stop-color="#00FFF3"
         stop-opacity=".72"
         id="stop964" />
      <stop
         offset="1"
         stop-color="#5BDCD6"
         stop-opacity="0"
         id="stop966" />
    </radialGradient>
    <clipPath
       id="f">
      <path
         fill="#ffffff"
         d="M 11.2,9.2 H 32.8 V 30.8 H 11.2 Z"
         id="path969" />
    </clipPath>
    <clipPath
       id="h">
      <path
         fill="#ffffff"
         d="M 15.7,9.2 H 30.1 V 30.8 H 15.7 Z"
         id="path972" />
    </clipPath>
    <filter
       id="a"
       width="43.200001"
       height="43.200001"
       x="0.40000001"
       y="0.2"
       color-interpolation-filters="sRGB"
       filterUnits="userSpaceOnUse">
      <feFlood
         flood-opacity="0"
         result="BackgroundImageFix"
         id="feFlood975" />
      <feColorMatrix
         in="SourceAlpha"
         result="hardAlpha"
         values="0 0 0 0 0 0 0 0 0 0 0 0 0 0 0 0 0 0 127 0"
         id="feColorMatrix977" />
      <feOffset
         id="feOffset979" />
      <feGaussianBlur
         stdDeviation=".9"
         id="feGaussianBlur981" />
      <feColorMatrix
         values="0 0 0 0 0 0 0 0 0 0 0 0 0 0 0 0 0 0 0.12 0"
         id="feColorMatrix983" />
      <feBlend
         in2="BackgroundImageFix"
         result="effect1_dropShadow_1360_20280"
         id="feBlend985"
         mode="normal" />
      <feColorMatrix
         in="SourceAlpha"
         result="hardAlpha"
         values="0 0 0 0 0 0 0 0 0 0 0 0 0 0 0 0 0 0 127 0"
         id="feColorMatrix987" />
      <feOffset
         dy="1.8"
         id="feOffset989" />
      <feGaussianBlur
         stdDeviation="1.8"
         id="feGaussianBlur991" />
      <feColorMatrix
         values="0 0 0 0 0 0 0 0 0 0 0 0 0 0 0 0 0 0 0.14 0"
         id="feColorMatrix993" />
      <feBlend
         in2="effect1_dropShadow_1360_20280"
         result="effect2_dropShadow_1360_20280"
         id="feBlend995"
         mode="normal" />
      <feBlend
         in="SourceGraphic"
         in2="effect2_dropShadow_1360_20280"
         result="shape"
         id="feBlend997"
         mode="normal" />
    </filter>
    <filter
       id="g"
       width="21.6"
       height="24.299999"
       x="11.2"
       y="9.1999998"
       color-interpolation-filters="sRGB"
       filterUnits="userSpaceOnUse">
      <feFlood
         flood-opacity="0"
         result="BackgroundImageFix"
         id="feFlood1000" />
      <feBlend
         in="SourceGraphic"
         in2="BackgroundImageFix"
         result="shape"
         id="feBlend1002"
         mode="normal" />
      <feColorMatrix
         in="SourceAlpha"
         result="hardAlpha"
         values="0 0 0 0 0 0 0 0 0 0 0 0 0 0 0 0 0 0 127 0"
         id="feColorMatrix1004" />
      <feOffset
         dy="2.7"
         id="feOffset1006" />
      <feGaussianBlur
         stdDeviation="4.388"
         id="feGaussianBlur1008" />
      <feComposite
         in2="hardAlpha"
         k2="-1"
         k3="1"
         operator="arithmetic"
         id="feComposite1010"
         k1="0"
         k4="0" />
      <feColorMatrix
         values="0 0 0 0 0.81875 0 0 0 0 0.824081 0 0 0 0 1 0 0 0 0.37 0"
         id="feColorMatrix1012" />
      <feBlend
         in2="shape"
         result="effect1_innerShadow_1360_20280"
         id="feBlend1014"
         mode="normal" />
    </filter>
  </defs>
  <g
     inkscape:label="Layer 1"
     inkscape:groupmode="layer"
     id="layer1"
     transform="translate(-37.137136,-25.697955)">
    <g
       style="fill:none"
       id="g1126"
       transform="matrix(2.7556539,0,0,2.7556539,36.034874,25.146824)">
      <g
         filter="url(#a)"
         id="g832">
        <path
           fill="url(#b)"
           d="m 22,2 c 9.941,0 18,8.058 18,17.997 0,9.94 -8.059,17.998 -18,17.998 -2.001,0 -3.956,-0.328 -5.803,-0.956 C 14.5,36.461 12.679,36.19 10.945,36.642 L 5.918,37.95 A 1.53,1.53 0 0 1 4.051,36.084 l 1.307,-5.018 c 0.452,-1.737 0.18,-3.56 -0.4,-5.259 A 17.98,17.98 0 0 1 4,19.997 C 4,10.057 12.059,2 22,2 Z"
           id="path824"
           style="fill:url(#b)" />
        <path
           stroke="url(#c)"
           stroke-width="1.5"
           d="M 5.729,37.224 A 0.78,0.78 0 0 1 4.778,36.273 L 6.084,31.255 C 6.587,29.323 6.274,27.34 5.669,25.565 A 17.23,17.23 0 0 1 4.75,19.997 C 4.75,10.472 12.473,2.75 22,2.75 c 9.527,0 17.25,7.722 17.25,17.247 0,9.526 -7.723,17.248 -17.25,17.248 -1.919,0 -3.792,-0.314 -5.561,-0.916 -1.774,-0.604 -3.754,-0.915 -5.683,-0.413 z"
           id="path826"
           style="stroke:url(#c)" />
        <path
           stroke="url(#d)"
           stroke-opacity="0.6"
           stroke-width="1.5"
           d="M 5.729,37.224 A 0.78,0.78 0 0 1 4.778,36.273 L 6.084,31.255 C 6.587,29.323 6.274,27.34 5.669,25.565 A 17.23,17.23 0 0 1 4.75,19.997 C 4.75,10.472 12.473,2.75 22,2.75 c 9.527,0 17.25,7.722 17.25,17.247 0,9.526 -7.723,17.248 -17.25,17.248 -1.919,0 -3.792,-0.314 -5.561,-0.916 -1.774,-0.604 -3.754,-0.915 -5.683,-0.413 z"
           id="path828"
           style="stroke:url(#d)" />
        <path
           stroke="url(#e)"
           stroke-opacity="0.8"
           stroke-width="1.5"
           d="M 5.729,37.224 A 0.78,0.78 0 0 1 4.778,36.273 L 6.084,31.255 C 6.587,29.323 6.274,27.34 5.669,25.565 A 17.23,17.23 0 0 1 4.75,19.997 C 4.75,10.472 12.473,2.75 22,2.75 c 9.527,0 17.25,7.722 17.25,17.247 0,9.526 -7.723,17.248 -17.25,17.248 -1.919,0 -3.792,-0.314 -5.561,-0.916 -1.774,-0.604 -3.754,-0.915 -5.683,-0.413 z"
           id="path830"
           style="stroke:url(#e)" />
      </g>
      <g
         clip-path="url(#f)"
         filter="url(#g)"
         id="g846">
        <g
           clip-path="url(#h)"
           id="g844">
          <path
             fill="url(#i)"
             d="m 30.1,23.08 a 5.706,5.706 0 0 1 -1.529,3.9 2.582,2.582 0 0 0 0.562,-1.009 c 0.01,-0.037 0.02,-0.074 0.028,-0.112 a 0.244,0.244 0 0 0 0.004,-0.013 c 0.01,-0.037 0.016,-0.074 0.023,-0.111 0.007,-0.039 0.015,-0.078 0.02,-0.116 v -0.003 a 2.48,2.48 0 0 0 0.026,-0.364 2.563,2.563 0 0 0 -0.786,-1.856 2.55,2.55 0 0 0 -1.143,-0.643 l -0.006,-0.001 -0.046,-0.016 -0.665,-0.23 -1.74,-0.6 c -0.006,-0.002 -0.013,-0.002 -0.017,-0.004 l -0.109,-0.04 a 1.616,1.616 0 0 1 -0.82,-0.723 l -0.636,-1.626 -0.727,-1.862 -0.14,-0.359 -0.036,-0.073 a 0.826,0.826 0 0 1 -0.061,-0.314 c 0,-0.028 0,-0.057 0.003,-0.083 a 0.814,0.814 0 0 1 1.123,-0.666 l 3.242,1.668 0.64,0.328 c 0.338,0.202 0.654,0.44 0.942,0.708 a 5.715,5.715 0 0 1 1.847,4.22 z"
             id="path834"
             style="fill:url(#i)" />
          <path
             fill="url(#j)"
             d="m 29.233,25.252 c 0,0.166 -0.016,0.326 -0.045,0.483 a 2.747,2.747 0 0 1 -0.13,0.452 c -0.014,0.037 -0.03,0.073 -0.045,0.11 A 2.61,2.61 0 0 1 28.57,26.98 c -0.472,0.525 -2.076,1.46 -2.668,1.84 l -1.313,0.805 c -0.961,0.594 -1.87,1.015 -3.017,1.044 l -0.16,0.003 a 5.71,5.71 0 0 1 -4.83,-2.67 5.666,5.666 0 0 1 -0.843,-2.387 2.53,2.53 0 0 0 3.703,1.783 l 0.129,-0.078 0.522,-0.31 0.666,-0.394 v -0.019 l 0.085,-0.051 5.952,-3.538 0.458,-0.272 0.045,0.015 0.006,0.002 a 2.55,2.55 0 0 1 1.389,0.917 2.577,2.577 0 0 1 0.54,1.582 z"
             id="path836"
             style="fill:url(#j)" />
          <path
             fill="url(#k)"
             d="m 20.76,13.446 -0.002,13.17 -0.665,0.395 -0.523,0.309 -0.129,0.078 -0.008,0.004 A 2.528,2.528 0 0 1 15.699,25.139 V 10.318 a 0.849,0.849 0 0 1 1.32,-0.705 l 2.59,1.697 c 0.013,0.012 0.029,0.022 0.045,0.032 a 2.543,2.543 0 0 1 1.106,2.104 z"
             id="path838"
             style="fill:url(#k)" />
          <path
             fill="url(#l)"
             d="m 29.233,25.252 c 0,0.166 -0.016,0.326 -0.045,0.483 a 2.747,2.747 0 0 1 -0.13,0.452 c -0.014,0.037 -0.03,0.073 -0.045,0.11 A 2.587,2.587 0 0 1 28.57,26.98 c -0.472,0.525 -2.076,1.46 -2.668,1.84 l -1.313,0.805 c -0.961,0.594 -1.87,1.015 -3.017,1.044 l -0.16,0.003 a 5.71,5.71 0 0 1 -4.83,-2.67 5.666,5.666 0 0 1 -0.843,-2.387 2.53,2.53 0 0 0 3.703,1.783 l 0.129,-0.078 0.522,-0.31 0.666,-0.394 v -0.019 l 0.085,-0.051 5.952,-3.538 0.458,-0.272 0.045,0.015 0.006,0.002 a 2.55,2.55 0 0 1 1.389,0.917 2.577,2.577 0 0 1 0.54,1.582 z"
             opacity="0.15"
             id="path840"
             style="fill:url(#l)" />
          <path
             fill="url(#m)"
             d="m 20.76,13.446 -0.002,13.17 -0.665,0.395 -0.523,0.309 -0.129,0.078 -0.008,0.004 A 2.528,2.528 0 0 1 15.699,25.139 V 10.318 a 0.849,0.849 0 0 1 1.32,-0.705 l 2.59,1.697 c 0.013,0.012 0.029,0.022 0.045,0.032 a 2.543,2.543 0 0 1 1.106,2.104 z"
             opacity="0.1"
             id="path842"
             style="fill:url(#m)" />
        </g>
      </g>
    </g>
  </g>
</svg>
